<svg xmlns="http://www.w3.org/2000/svg" viewBox="0 0 582.65 589.53"><defs><style>.cls-1{fill:#ffcb4c;}.cls-2{fill:#58a5c4;}.cls-3{fill:#58a2c6;}.cls-4{fill:#5da9d8;}.cls-5{fill:#422b0d;}.cls-6{fill:#f19020;}</style></defs><title>logo</title><g id="레이어_2" data-name="레이어 2"><g id="레이어_1-2" data-name="레이어 1"><rect class="cls-1" x="12.43" y="12.26" width="557.79" height="565" transform="translate(-12.97 13.41) rotate(-2.58)"/><path class="cls-2" d="M106.65,203.88v1.71c0-.52.14-1.05.19-1.58ZM269.83,343.67a24.16,24.16,0,0,1-5.17-3.09L113.74,219.5c-4.73-3.83-7.09-8.86-7.09-13.91V359.21c0,25.63,13.72,31.18,13.72,31.18L265.65,504.61a26.33,26.33,0,0,0,6.63,4,13.76,13.76,0,0,1-2.45-7.58Z"/><path class="cls-3" d="M451,218.45,299.09,340.58a23.23,23.23,0,0,1-4.15,2.66V501a13.85,13.85,0,0,1-2.52,7.7,26,26,0,0,0,6.88-4.11c22.86-18,145.46-114.22,145.46-114.22s13.36-5.55,13.36-31.18V204.54C458.12,209.59,455.76,214.62,451,218.45Zm-93.6,210c-3,14.28-14.05,25.84-24.58,25.84s-16.59-11.56-13.55-25.84,14-25.83,24.56-25.83S360.45,414.19,357.42,428.46Zm44.41-66.16C398.64,377,387,388.92,376,388.92S358.48,377,361.66,362.3s14.8-26.62,25.87-26.62S405,347.59,401.83,362.3Zm38.45-64.08c-3.15,14-14.6,25.32-25.54,25.32s-17.26-11.32-14.1-25.32,14.59-25.31,25.53-25.31S443.44,284.25,440.28,298.22ZM458,203.94c0,.2.08.4.08.6v-.66Z"/><path class="cls-4" d="M451,190.63,298.56,72.07c-9.45-7.65-24.95-7.65-34.42,0L113.74,191.69A18.1,18.1,0,0,0,106.82,204c0,.52-.17,1-.17,1.56,0,5,2.36,10.08,7.09,13.91L264.66,340.58a24.08,24.08,0,0,0,5.17,3.09V501a13.84,13.84,0,0,0,2.44,7.58,11.56,11.56,0,0,0,20.15.12,13.8,13.8,0,0,0,2.52-7.7V343.24a23.23,23.23,0,0,0,4.15-2.66L451,218.45c4.74-3.83,7.1-8.86,7.1-13.91,0-.2-.07-.4-.08-.61A17.88,17.88,0,0,0,451,190.63Z"/><path class="cls-5" d="M426.17,272.91c-10.94,0-22.38,11.34-25.53,25.31s3.15,25.32,14.1,25.32,22.39-11.32,25.54-25.32S437.13,272.91,426.17,272.91Zm-38.62,62.77c-11.09,0-22.69,11.91-25.87,26.62s3.2,26.62,14.28,26.62,22.7-11.91,25.88-26.62S398.64,335.68,387.55,335.68Zm-43.71,66.95c-10.53,0-21.53,11.56-24.57,25.83s3,25.84,13.56,25.84,21.54-11.56,24.58-25.84S354.37,402.63,343.84,402.63Z"/><path class="cls-5" d="M238.39,305.52a10.15,10.15,0,0,1-3.47-5.16A8.89,8.89,0,0,1,241.48,289c50.34-11.35,84.23,15.16,85.67,16.29a9.58,9.58,0,0,1,1.92,13.4c-3.18,4-9.2,4.45-13.46,1.07-1.22-.93-28.05-21.37-68.73-12.2A10.11,10.11,0,0,1,238.39,305.52Z"/><ellipse class="cls-5" cx="222.77" cy="195.89" rx="23.62" ry="29.53"/><ellipse class="cls-5" cx="347.9" cy="207.69" rx="23.62" ry="29.53"/><path class="cls-5" d="M180.27,142.27a10.31,10.31,0,0,1-4.35-4.44,8.89,8.89,0,0,1,4.37-12.36c47.43-20.35,85.59-.48,87.19.38,4.82,2.57,6.76,8.3,4.35,12.83s-8.23,6.07-13,3.53c-1.37-.7-31.48-15.92-69.79.53A10.19,10.19,0,0,1,180.27,142.27ZM315.17,184a10.3,10.3,0,0,1-4-4.72,8.9,8.9,0,0,1,5.2-12.05c48.71-17.07,85.44,5.34,87,6.31,4.62,2.89,6.17,8.75,3.47,13.09s-8.63,5.51-13.24,2.65c-1.33-.8-30.32-18-69.67-4.21A10.29,10.29,0,0,1,315.17,184Z"/><path class="cls-5" d="M178.08,334.86c-12.48,0-19.67,12.64-16.07,28.23s16.63,28.24,29.11,28.24,19.67-12.64,16.07-28.24S190.56,334.86,178.08,334.86Z"/><path class="cls-6" d="M269,462.42s14.07-4.57,15.89-15c1.92-10.81-6.94-13-6.94-13a17.24,17.24,0,0,0,13-15.29A13.6,13.6,0,0,0,281.39,404a19.68,19.68,0,0,0,11.3-17.11c.42-10.66-11.07-15.87-11.07-15.87s56-13.57,61.77-14.91,14.67-6.84,11.88-18.83-13.38-12.43-18.86-11.15-75,17.41-98.94,23l-16,3.71c-6,1.41-8.73-1.22-4.49-5.69,5.65-6,9.26-12.55,10.51-23.49,1.33-11.51-2.57-25.71-4.81-31.23-4.16-10.24-11.17-18.33-19.28-21.11-12.64-4.33-21.62,3.57-17.14,17.35,6.72,20.62,2.31,37.52-9.26,47.73-27.22,24-39.89,41.08-31.46,77.52,9.21,39.74,48.66,65.32,88.4,56.12Z"/></g></g></svg>