<svg xmlns="http://www.w3.org/2000/svg" viewBox="0 0 1920 1080"><defs><style>.cls-1{fill:#5da9d8;}.cls-2{fill:none;}.cls-3{fill:#ffcb4c;}.cls-4{fill:#f19020;}.cls-5{fill:#65471b;}.cls-6{fill:#58a5c4;}.cls-7{fill:#58a2c6;}.cls-8{fill:#422b0d;}</style></defs><title>randkid</title><g id="레이어_2" data-name="레이어 2"><g id="레이어_1-2" data-name="레이어 1"><rect class="cls-1" width="1920" height="1080"/><path class="cls-2" d="M1383.55,904.69a188.91,188.91,0,0,1-156,93.45c-3.28,8.82-15.26,12.72-15.26,12.72l-35,7.57c-39.74,9.21-79.19-16.37-88.4-56.12a90.78,90.78,0,0,1-2.56-19.81,188.37,188.37,0,0,1-54.94-133.2c0-104.38,84.62-189,189-189a188.76,188.76,0,0,1,153.94,79.33l-6-132.43,157.08-7.08a75.12,75.12,0,0,1-11.54-26,90.78,90.78,0,0,1-2.56-19.81,188.37,188.37,0,0,1-54.94-133.2c0-104.38,84.62-189,189-189s189,84.61,189,189A189,189,0,0,1,1728.3,551l191.7-8.63V495.59a189,189,0,0,1,0-228.92V67.41A188,188,0,0,1,1887.3,0h-58.83a189.09,189.09,0,0,1-175.88,141.8c-3.28,8.82-15.26,12.72-15.26,12.72l-35,7.57c-39.74,9.2-79.19-16.38-88.4-56.12a90.78,90.78,0,0,1-2.56-19.81A188.76,188.76,0,0,1,1462.3,0h-58.83a189.09,189.09,0,0,1-175.88,141.8c-3.28,8.82-15.26,12.72-15.26,12.72l-35,7.57c-39.74,9.2-79.19-16.38-88.4-56.12a90.78,90.78,0,0,1-2.56-19.81A188.76,188.76,0,0,1,1037.3,0H978.47A189.09,189.09,0,0,1,802.59,141.8c-3.28,8.82-15.25,12.72-15.25,12.72l-35.05,7.57c-39.74,9.2-79.19-16.38-88.4-56.12a90.78,90.78,0,0,1-2.56-19.81A188.76,188.76,0,0,1,612.3,0H553.47A189.09,189.09,0,0,1,377.59,141.8c-3.28,8.82-15.25,12.72-15.25,12.72l-35,7.57c-39.74,9.2-79.19-16.38-88.4-56.12a90.78,90.78,0,0,1-2.56-19.81A188.76,188.76,0,0,1,187.3,0H128.47A189.34,189.34,0,0,1,0,133.92v66.24a189.08,189.08,0,0,1,134.37,181A189.06,189.06,0,0,1,0,562.09v66.25a189.05,189.05,0,0,1,134.37,181c0,4.33-.16,8.62-.44,12.88L181.7,820c-.19-3.55-.31-7.13-.31-10.73,0-104.38,84.62-189,189-189C472.66,620.31,556,701.55,559.26,803l47.33-2.13c4.4-100.47,87.24-180.58,188.79-180.58,104.38,0,189,84.61,189,189A188.1,188.1,0,0,1,947.13,922L950,985.63l-99.48,4.48a189,189,0,0,1-47.93,8c-3.28,8.82-15.25,12.72-15.25,12.72l-35.05,7.57a73.16,73.16,0,0,1-69.19-20.78l-328,14.77-27.82,6a72,72,0,0,1-42-2.86L75.89,1025l-3.42-75.82A188.66,188.66,0,0,1,0,990.26v66.25A187.89,187.89,0,0,1,49.9,1080h216a189,189,0,0,1,209,0h216a189,189,0,0,1,209,0h216a189,189,0,0,1,209,0h66.55ZM1220.38,192.14c104.38,0,189,84.61,189,189,0,102-80.75,185-181.78,188.84-3.28,8.82-15.26,12.72-15.26,12.72l-35,7.57c-39.74,9.21-79.19-16.37-88.4-56.12a90.78,90.78,0,0,1-2.56-19.81,188.37,188.37,0,0,1-54.94-133.2C1031.39,276.75,1116,192.14,1220.38,192.14ZM377.59,570c-3.28,8.82-15.25,12.72-15.25,12.72l-35,7.57c-39.74,9.21-79.19-16.37-88.4-56.12a90.78,90.78,0,0,1-2.56-19.81,188.37,188.37,0,0,1-54.94-133.2c0-104.38,84.62-189,189-189s189,84.61,189,189C559.37,483.09,478.62,566.18,377.59,570Zm425,0c-3.28,8.82-15.25,12.72-15.25,12.72l-35.05,7.57c-39.74,9.21-79.19-16.37-88.4-56.12a90.78,90.78,0,0,1-2.56-19.81,188.37,188.37,0,0,1-54.94-133.2c0-104.38,84.62-189,189-189s189,84.61,189,189C984.37,483.09,903.62,566.18,802.59,570Z"/><path class="cls-3" d="M1545.35,456.62c11.58-10.2,16-27.11,9.26-47.72-4.48-13.79,4.51-21.69,17.15-17.36,8.1,2.78,15.12,10.88,19.27,21.12,2.24,5.51,6.14,19.72,4.82,31.22-1.26,10.94-4.87,17.53-10.52,23.49-4.24,4.47-1.51,7.11,4.49,5.7l16-3.72c24-5.58,93.45-21.71,98.94-23s16.1-.85,18.87,11.15-6.15,17.5-11.89,18.83S1650,491.25,1650,491.25s11.48,5.22,11.06,15.88a19.68,19.68,0,0,1-11.3,17.11,13.59,13.59,0,0,1,9.57,15.15,17.26,17.26,0,0,1-13,15.3h0l82-3.7a189,189,0,0,0,106.07-169.86c0-104.38-84.61-189-189-189s-189,84.61-189,189a188.37,188.37,0,0,0,54.94,133.2C1511.15,490.57,1523.59,475.79,1545.35,456.62Zm45.77-110.93c-13,0-23.62-13.22-23.62-29.53s10.57-29.53,23.62-29.53,23.63,13.22,23.63,29.53S1604.17,345.69,1591.12,345.69Zm93.58-58.22c48.71-17.08,85.44,5.33,87,6.3,4.62,2.89,6.17,8.75,3.47,13.1s-8.63,5.5-13.24,2.64c-.94-.56-15.69-9.31-38.14-9.54,9.37,3.92,16.12,15,16.12,28,0,16.3-10.58,29.52-23.63,29.52s-23.62-13.22-23.62-29.52c0-11.47,5.23-21.39,12.86-26.29a95.3,95.3,0,0,0-13.26,3.62,10.36,10.36,0,0,1-12.73-5.78A8.9,8.9,0,0,1,1684.7,287.47Zm10.8,138.1a9.58,9.58,0,0,1,1.92,13.4c-3.18,4-9.2,4.46-13.46,1.08-1.22-.94-28-21.38-68.73-12.21a10.32,10.32,0,0,1-12-7.2,8.88,8.88,0,0,1,6.56-11.35C1660.17,397.94,1694.07,424.44,1695.5,425.57ZM1548.64,245.74c47.43-20.35,85.59-.47,87.19.38,4.82,2.57,6.76,8.31,4.35,12.83s-8.23,6.07-13,3.54c-1.37-.7-31.48-15.92-69.79.52a10.19,10.19,0,0,1-8.73-.47,10.34,10.34,0,0,1-4.35-4.43A8.9,8.9,0,0,1,1548.64,245.74Z"/><path class="cls-4" d="M1646.28,554.69h0a17.26,17.26,0,0,0,13-15.3,13.59,13.59,0,0,0-9.57-15.15,19.68,19.68,0,0,0,11.3-17.11c.42-10.66-11.06-15.88-11.06-15.88s56-13.57,61.76-14.91,14.68-6.83,11.89-18.83-13.39-12.43-18.87-11.15-75,17.41-98.94,23l-16,3.72c-6,1.41-8.73-1.23-4.49-5.7,5.65-6,9.26-12.55,10.52-23.49,1.32-11.5-2.58-25.71-4.82-31.22-4.15-10.24-11.17-18.34-19.27-21.12-12.64-4.33-21.63,3.57-17.15,17.36,6.72,20.61,2.32,37.52-9.26,47.72-21.76,19.17-34.2,33.95-34,57.71a90.78,90.78,0,0,0,2.56,19.81,75.12,75.12,0,0,0,11.54,26Z"/><path class="cls-5" d="M1609.83,409.29a8.88,8.88,0,0,0-6.56,11.35,10.32,10.32,0,0,0,12,7.2c40.68-9.17,67.51,11.27,68.73,12.21,4.26,3.38,10.28,2.9,13.46-1.08a9.58,9.58,0,0,0-1.92-13.4C1694.07,424.44,1660.17,397.94,1609.83,409.29Z"/><ellipse class="cls-5" cx="1591.12" cy="316.16" rx="23.62" ry="29.53"/><path class="cls-5" d="M1705.49,301.68c-7.63,4.9-12.86,14.82-12.86,26.29,0,16.3,10.58,29.52,23.62,29.52s23.63-13.22,23.63-29.52c0-13-6.75-24.08-16.12-28A89.79,89.79,0,0,0,1705.49,301.68Z"/><path class="cls-5" d="M1683.53,304.23a10.26,10.26,0,0,0,8.7,1.07,95.3,95.3,0,0,1,13.26-3.62,89.79,89.79,0,0,1,18.27-1.71c22.45.23,37.2,9,38.14,9.54,4.61,2.86,10.55,1.69,13.24-2.64s1.15-10.21-3.47-13.1c-1.53-1-38.26-23.38-87-6.3a8.9,8.9,0,0,0-5.2,12A10.29,10.29,0,0,0,1683.53,304.23Z"/><path class="cls-5" d="M1548.62,262.54a10.19,10.19,0,0,0,8.73.47c38.31-16.44,68.42-1.22,69.79-.52,4.81,2.53,10.64,1,13-3.54s.47-10.26-4.35-12.83c-1.6-.85-39.76-20.73-87.19-.38a8.9,8.9,0,0,0-4.37,12.37A10.34,10.34,0,0,0,1548.62,262.54Z"/><path class="cls-3" d="M1120.35,456.62c11.58-10.2,16-27.11,9.26-47.72-4.48-13.79,4.51-21.69,17.15-17.36,8.1,2.78,15.12,10.88,19.27,21.12,2.24,5.51,6.14,19.72,4.82,31.22-1.26,10.94-4.87,17.53-10.52,23.49-4.24,4.47-1.51,7.11,4.49,5.7l16-3.72c24-5.58,93.45-21.71,98.94-23s16.1-.85,18.87,11.15-6.15,17.5-11.89,18.83S1225,491.25,1225,491.25s11.48,5.22,11.06,15.88a19.68,19.68,0,0,1-11.3,17.11,13.59,13.59,0,0,1,9.57,15.15,17.26,17.26,0,0,1-13,15.3s8.86,2.16,6.94,13a13.56,13.56,0,0,1-.63,2.31c101-3.79,181.78-86.88,181.78-188.84,0-104.38-84.61-189-189-189s-189,84.61-189,189a188.37,188.37,0,0,0,54.94,133.2C1086.15,490.57,1098.59,475.79,1120.35,456.62Zm45.77-110.93c-13,0-23.62-13.22-23.62-29.53s10.57-29.53,23.62-29.53,23.63,13.22,23.63,29.53S1179.17,345.69,1166.12,345.69Zm93.58-58.22c48.71-17.08,85.44,5.33,87,6.3,4.62,2.89,6.17,8.75,3.47,13.1s-8.63,5.5-13.24,2.64c-.94-.56-15.69-9.31-38.14-9.54,9.37,3.92,16.12,15,16.12,28,0,16.3-10.58,29.52-23.63,29.52s-23.62-13.22-23.62-29.52c0-11.47,5.23-21.39,12.86-26.29a95.3,95.3,0,0,0-13.26,3.62,10.36,10.36,0,0,1-12.73-5.78A8.9,8.9,0,0,1,1259.7,287.47Zm10.8,138.1a9.58,9.58,0,0,1,1.92,13.4c-3.18,4-9.2,4.46-13.46,1.08-1.22-.94-28-21.38-68.73-12.21a10.32,10.32,0,0,1-12-7.2,8.88,8.88,0,0,1,6.56-11.35C1235.17,397.94,1269.07,424.44,1270.5,425.57ZM1123.64,245.74c47.43-20.35,85.59-.47,87.19.38,4.82,2.57,6.76,8.31,4.35,12.83s-8.23,6.07-13,3.54c-1.37-.7-31.48-15.92-69.79.52a10.19,10.19,0,0,1-8.73-.47,10.34,10.34,0,0,1-4.35-4.43A8.9,8.9,0,0,1,1123.64,245.74Z"/><path class="cls-4" d="M1221.28,554.69a17.26,17.26,0,0,0,13-15.3,13.59,13.59,0,0,0-9.57-15.15,19.68,19.68,0,0,0,11.3-17.11c.42-10.66-11.06-15.88-11.06-15.88s56-13.57,61.76-14.91,14.68-6.83,11.89-18.83-13.39-12.43-18.87-11.15-75,17.41-98.94,23l-16,3.72c-6,1.41-8.73-1.23-4.49-5.7,5.65-6,9.26-12.55,10.52-23.49,1.32-11.5-2.58-25.71-4.82-31.22-4.15-10.24-11.17-18.34-19.27-21.12-12.64-4.33-21.63,3.57-17.15,17.36,6.72,20.61,2.32,37.52-9.26,47.72-21.76,19.17-34.2,33.95-34,57.71a90.78,90.78,0,0,0,2.56,19.81c9.21,39.75,48.66,65.33,88.4,56.12l35-7.57s12-3.9,15.26-12.72a13.56,13.56,0,0,0,.63-2.31C1230.14,556.85,1221.28,554.69,1221.28,554.69Z"/><path class="cls-5" d="M1184.83,409.29a8.88,8.88,0,0,0-6.56,11.35,10.32,10.32,0,0,0,12,7.2c40.68-9.17,67.51,11.27,68.73,12.21,4.26,3.38,10.28,2.9,13.46-1.08a9.58,9.58,0,0,0-1.92-13.4C1269.07,424.44,1235.17,397.94,1184.83,409.29Z"/><ellipse class="cls-5" cx="1166.12" cy="316.16" rx="23.62" ry="29.53"/><path class="cls-5" d="M1280.49,301.68c-7.63,4.9-12.86,14.82-12.86,26.29,0,16.3,10.58,29.52,23.62,29.52s23.63-13.22,23.63-29.52c0-13-6.75-24.08-16.12-28A89.79,89.79,0,0,0,1280.49,301.68Z"/><path class="cls-5" d="M1123.62,262.54a10.19,10.19,0,0,0,8.73.47c38.31-16.44,68.42-1.22,69.79-.52,4.81,2.53,10.64,1,13-3.54s.47-10.26-4.35-12.83c-1.6-.85-39.76-20.73-87.19-.38a8.9,8.9,0,0,0-4.37,12.37A10.34,10.34,0,0,0,1123.62,262.54Z"/><path class="cls-5" d="M1258.53,304.23a10.26,10.26,0,0,0,8.7,1.07,95.3,95.3,0,0,1,13.26-3.62,89.79,89.79,0,0,1,18.27-1.71c22.45.23,37.2,9,38.14,9.54,4.61,2.86,10.55,1.69,13.24-2.64s1.15-10.21-3.47-13.1c-1.53-1-38.26-23.38-87-6.3a8.9,8.9,0,0,0-5.2,12A10.29,10.29,0,0,0,1258.53,304.23Z"/><path class="cls-3" d="M795.38,192.14c-104.37,0-189,84.61-189,189a188.37,188.37,0,0,0,54.94,133.2c-.18-23.76,12.26-38.54,34-57.71,11.58-10.2,16-27.11,9.26-47.72-4.48-13.79,4.51-21.69,17.15-17.36,8.1,2.78,15.11,10.88,19.27,21.12,2.24,5.51,6.14,19.72,4.82,31.22-1.26,10.94-4.87,17.53-10.52,23.49-4.24,4.47-1.51,7.11,4.49,5.7l16-3.72c24-5.58,93.45-21.71,98.94-23s16.1-.85,18.87,11.15-6.15,17.5-11.89,18.83S800,491.25,800,491.25s11.48,5.22,11.06,15.88a19.68,19.68,0,0,1-11.3,17.11,13.59,13.59,0,0,1,9.57,15.15,17.26,17.26,0,0,1-13,15.3s8.86,2.16,6.94,13a13.56,13.56,0,0,1-.63,2.31c101-3.79,181.78-86.88,181.78-188.84C984.37,276.75,899.76,192.14,795.38,192.14Zm-88,70.87a10.19,10.19,0,0,1-8.73-.47,10.34,10.34,0,0,1-4.35-4.43,8.9,8.9,0,0,1,4.37-12.37c47.43-20.35,85.59-.47,87.19.38,4.82,2.57,6.76,8.31,4.35,12.83s-8.23,6.07-13,3.54C775.77,261.79,745.66,246.57,707.35,263Zm33.77,82.68c-13,0-23.62-13.22-23.62-29.53s10.57-29.53,23.62-29.53,23.63,13.22,23.63,29.53S754.17,345.69,741.12,345.69ZM847.42,439c-3.18,4-9.2,4.46-13.46,1.08-1.22-.94-28.05-21.38-68.73-12.21a10.32,10.32,0,0,1-12-7.2,8.88,8.88,0,0,1,6.56-11.35c50.34-11.35,84.24,15.15,85.67,16.28A9.58,9.58,0,0,1,847.42,439Zm77.72-132.1c-2.69,4.33-8.63,5.5-13.24,2.64-.94-.56-15.69-9.31-38.14-9.54,9.37,3.92,16.12,15,16.12,28,0,16.3-10.58,29.52-23.63,29.52S842.63,344.27,842.63,328c0-11.47,5.23-21.39,12.86-26.29a95.3,95.3,0,0,0-13.26,3.62,10.36,10.36,0,0,1-12.73-5.78,8.9,8.9,0,0,1,5.2-12c48.71-17.08,85.44,5.33,87,6.3C926.29,296.66,927.84,302.52,925.14,306.87Z"/><path class="cls-4" d="M796.28,554.69a17.26,17.26,0,0,0,13-15.3,13.59,13.59,0,0,0-9.57-15.15A19.68,19.68,0,0,0,811,507.13c.42-10.66-11.06-15.88-11.06-15.88s56-13.57,61.76-14.91,14.68-6.83,11.89-18.83-13.39-12.43-18.87-11.15-75,17.41-98.94,23l-16,3.72c-6,1.41-8.73-1.23-4.49-5.7,5.65-6,9.26-12.55,10.52-23.49,1.32-11.5-2.58-25.71-4.82-31.22-4.16-10.24-11.17-18.34-19.27-21.12-12.64-4.33-21.63,3.57-17.15,17.36,6.72,20.61,2.32,37.52-9.26,47.72-21.76,19.17-34.2,33.95-34,57.71a90.78,90.78,0,0,0,2.56,19.81c9.21,39.75,48.66,65.33,88.4,56.12l35.05-7.57s12-3.9,15.25-12.72a13.56,13.56,0,0,0,.63-2.31C805.14,556.85,796.28,554.69,796.28,554.69Z"/><path class="cls-5" d="M845.5,425.57c-1.43-1.13-35.33-27.63-85.67-16.28a8.88,8.88,0,0,0-6.56,11.35,10.32,10.32,0,0,0,12,7.2c40.68-9.17,67.51,11.27,68.73,12.21,4.26,3.38,10.28,2.9,13.46-1.08A9.58,9.58,0,0,0,845.5,425.57Z"/><ellipse class="cls-5" cx="741.12" cy="316.16" rx="23.62" ry="29.53"/><path class="cls-5" d="M855.49,301.68c-7.63,4.9-12.86,14.82-12.86,26.29,0,16.3,10.58,29.52,23.62,29.52s23.63-13.22,23.63-29.52c0-13-6.75-24.08-16.12-28A89.79,89.79,0,0,0,855.49,301.68Z"/><path class="cls-5" d="M777.14,262.49c4.81,2.53,10.64,1,13-3.54s.47-10.26-4.35-12.83c-1.6-.85-39.76-20.73-87.19-.38a8.9,8.9,0,0,0-4.37,12.37,10.34,10.34,0,0,0,4.35,4.43,10.19,10.19,0,0,0,8.73.47C745.66,246.57,775.77,261.79,777.14,262.49Z"/><path class="cls-5" d="M921.67,293.77c-1.53-1-38.26-23.38-87-6.3a8.9,8.9,0,0,0-5.2,12,10.36,10.36,0,0,0,12.73,5.78,95.3,95.3,0,0,1,13.26-3.62A89.79,89.79,0,0,1,873.76,300c22.45.23,37.2,9,38.14,9.54,4.61,2.86,10.55,1.69,13.24-2.64S926.29,296.66,921.67,293.77Z"/><path class="cls-3" d="M370.38,192.14c-104.37,0-189,84.61-189,189a188.37,188.37,0,0,0,54.94,133.2c-.18-23.76,12.26-38.54,34-57.71,11.58-10.2,16-27.11,9.26-47.72-4.48-13.79,4.51-21.69,17.15-17.36,8.1,2.78,15.11,10.88,19.27,21.12,2.24,5.51,6.14,19.72,4.82,31.22-1.26,10.94-4.87,17.53-10.52,23.49-4.24,4.47-1.51,7.11,4.49,5.7l16-3.72c24-5.58,93.45-21.71,98.94-23s16.1-.85,18.87,11.15-6.15,17.5-11.89,18.83S375,491.25,375,491.25s11.48,5.22,11.06,15.88a19.68,19.68,0,0,1-11.3,17.11,13.59,13.59,0,0,1,9.57,15.15,17.26,17.26,0,0,1-13,15.3s8.86,2.16,6.94,13a13.56,13.56,0,0,1-.63,2.31c101-3.79,181.78-86.88,181.78-188.84C559.37,276.75,474.76,192.14,370.38,192.14Zm-88,70.87a10.19,10.19,0,0,1-8.73-.47,10.34,10.34,0,0,1-4.35-4.43,8.9,8.9,0,0,1,4.37-12.37c47.43-20.35,85.59-.47,87.19.38,4.82,2.57,6.76,8.31,4.35,12.83s-8.23,6.07-13,3.54C350.77,261.79,320.66,246.57,282.35,263Zm33.77,82.68c-13.05,0-23.62-13.22-23.62-29.53s10.57-29.53,23.62-29.53,23.63,13.22,23.63,29.53S329.17,345.69,316.12,345.69ZM422.42,439c-3.18,4-9.2,4.46-13.46,1.08-1.22-.94-28-21.38-68.73-12.21a10.32,10.32,0,0,1-12-7.2,8.88,8.88,0,0,1,6.56-11.35c50.34-11.35,84.24,15.15,85.67,16.28A9.58,9.58,0,0,1,422.42,439Zm77.72-132.1c-2.69,4.33-8.63,5.5-13.24,2.64-.94-.56-15.69-9.31-38.14-9.54,9.37,3.92,16.12,15,16.12,28,0,16.3-10.58,29.52-23.63,29.52S417.63,344.27,417.63,328c0-11.47,5.23-21.39,12.86-26.29a95.3,95.3,0,0,0-13.26,3.62,10.36,10.36,0,0,1-12.73-5.78,8.9,8.9,0,0,1,5.2-12c48.71-17.08,85.44,5.33,87,6.3C501.29,296.66,502.84,302.52,500.14,306.87Z"/><path class="cls-4" d="M371.28,554.69a17.26,17.26,0,0,0,13-15.3,13.59,13.59,0,0,0-9.57-15.15A19.68,19.68,0,0,0,386,507.13c.42-10.66-11.06-15.88-11.06-15.88s56-13.57,61.76-14.91,14.68-6.83,11.89-18.83-13.39-12.43-18.87-11.15-75,17.41-98.94,23l-16,3.72c-6,1.41-8.73-1.23-4.49-5.7,5.65-6,9.26-12.55,10.52-23.49,1.32-11.5-2.58-25.71-4.82-31.22-4.16-10.24-11.17-18.34-19.27-21.12-12.64-4.33-21.63,3.57-17.15,17.36,6.72,20.61,2.32,37.52-9.26,47.72-21.76,19.17-34.2,33.95-34,57.71a90.78,90.78,0,0,0,2.56,19.81c9.21,39.75,48.66,65.33,88.4,56.12l35-7.57s12-3.9,15.25-12.72a13.56,13.56,0,0,0,.63-2.31C380.14,556.85,371.28,554.69,371.28,554.69Z"/><path class="cls-5" d="M420.5,425.57c-1.43-1.13-35.33-27.63-85.67-16.28a8.88,8.88,0,0,0-6.56,11.35,10.32,10.32,0,0,0,12,7.2c40.68-9.17,67.51,11.27,68.73,12.21,4.26,3.38,10.28,2.9,13.46-1.08A9.58,9.58,0,0,0,420.5,425.57Z"/><ellipse class="cls-5" cx="316.12" cy="316.16" rx="23.62" ry="29.53"/><path class="cls-5" d="M430.49,301.68c-7.63,4.9-12.86,14.82-12.86,26.29,0,16.3,10.58,29.52,23.62,29.52s23.63-13.22,23.63-29.52c0-13-6.75-24.08-16.12-28A89.79,89.79,0,0,0,430.49,301.68Z"/><path class="cls-5" d="M496.67,293.77c-1.53-1-38.26-23.38-87-6.3a8.9,8.9,0,0,0-5.2,12,10.36,10.36,0,0,0,12.73,5.78,95.3,95.3,0,0,1,13.26-3.62A89.79,89.79,0,0,1,448.76,300c22.45.23,37.2,9,38.14,9.54,4.61,2.86,10.55,1.69,13.24-2.64S501.29,296.66,496.67,293.77Z"/><path class="cls-5" d="M352.14,262.49c4.81,2.53,10.64,1,13-3.54s.47-10.26-4.35-12.83c-1.6-.85-39.76-20.73-87.19-.38a8.9,8.9,0,0,0-4.37,12.37,10.34,10.34,0,0,0,4.35,4.43,10.19,10.19,0,0,0,8.73.47C320.66,246.57,350.77,261.79,352.14,262.49Z"/><path class="cls-3" d="M134.37,381.13A189.08,189.08,0,0,0,0,200.16v83.09c40.91-8.28,70.3,9.66,71.67,10.52,4.62,2.89,6.17,8.75,3.47,13.1s-8.63,5.5-13.24,2.64C61,309,46.21,300.2,23.76,300c9.37,3.92,16.12,15,16.12,28,0,16.3-10.58,29.52-23.63,29.52-6.3,0-12-3.09-16.25-8.11v98.09l4.76-1.11c5.48-1.28,16.1-.85,18.87,11.15S17.48,475,11.74,476.34L0,479.16v82.93A189.06,189.06,0,0,0,134.37,381.13Z"/><path class="cls-3" d="M5.49,301.68c-1.8.36-3.63.77-5.49,1.25v3.62A25,25,0,0,1,5.49,301.68Z"/><path class="cls-4" d="M23.63,457.51c-2.77-12-13.39-12.43-18.87-11.15L0,447.47v31.69l11.74-2.82C17.48,475,26.42,469.51,23.63,457.51Z"/><path class="cls-5" d="M16.25,357.49c13.05,0,23.63-13.22,23.63-29.52,0-13-6.75-24.08-16.12-28a89.79,89.79,0,0,0-18.27,1.71A25,25,0,0,0,0,306.55v42.83C4.24,354.4,10,357.49,16.25,357.49Z"/><path class="cls-5" d="M23.76,300c22.45.23,37.2,9,38.14,9.54,4.61,2.86,10.55,1.69,13.24-2.64s1.15-10.21-3.47-13.1C70.3,292.91,40.91,275,0,283.25v19.68c1.86-.48,3.69-.89,5.49-1.25A89.79,89.79,0,0,1,23.76,300Z"/><path class="cls-3" d="M1920,495.59V266.67a189,189,0,0,0,0,228.92Z"/><path class="cls-3" d="M1220.38,620.31c-104.37,0-189,84.61-189,189a188.37,188.37,0,0,0,54.94,133.2c-.18-23.76,12.26-38.54,34-57.71,11.58-10.2,16-27.11,9.26-47.72-4.48-13.79,4.51-21.69,17.15-17.35,8.1,2.77,15.12,10.87,19.27,21.11,2.24,5.51,6.14,19.72,4.82,31.22-1.26,10.94-4.87,17.54-10.52,23.49-4.24,4.47-1.51,7.11,4.49,5.7l16-3.72c24-5.58,93.45-21.71,98.94-23s16.1-.85,18.87,11.15-6.15,17.5-11.89,18.84-61.76,14.9-61.76,14.9,11.48,5.22,11.06,15.88a19.68,19.68,0,0,1-11.3,17.11,13.59,13.59,0,0,1,9.57,15.15,17.25,17.25,0,0,1-13,15.3s8.86,2.17,6.94,13a13.31,13.31,0,0,1-.63,2.31,188.91,188.91,0,0,0,156-93.45l-9.23-205.05A188.76,188.76,0,0,0,1220.38,620.31Zm-88,70.87a10.15,10.15,0,0,1-8.73-.47,10.28,10.28,0,0,1-4.35-4.43,8.88,8.88,0,0,1,4.37-12.36c47.43-20.36,85.59-.48,87.19.37,4.82,2.57,6.76,8.31,4.35,12.83s-8.23,6.07-13,3.54C1200.77,690,1170.66,674.74,1132.35,691.18Zm33.77,82.68c-13,0-23.62-13.22-23.62-29.53s10.57-29.53,23.62-29.53,23.63,13.22,23.63,29.53S1179.17,773.86,1166.12,773.86Zm106.3,93.28c-3.18,4-9.2,4.46-13.46,1.08-1.22-.94-28-21.38-68.73-12.21a10.32,10.32,0,0,1-12-7.2,8.88,8.88,0,0,1,6.56-11.35c50.34-11.35,84.24,15.15,85.67,16.28A9.58,9.58,0,0,1,1272.42,867.14ZM1350.14,735c-2.69,4.33-8.63,5.5-13.24,2.64-.94-.56-15.69-9.31-38.14-9.54,9.37,3.93,16.12,15,16.12,28,0,16.3-10.58,29.52-23.63,29.52s-23.62-13.22-23.62-29.52c0-11.46,5.23-21.39,12.86-26.29a98.16,98.16,0,0,0-13.26,3.62,10.36,10.36,0,0,1-12.73-5.78,8.9,8.9,0,0,1,5.2-12.05c48.71-17.08,85.44,5.33,87,6.3C1351.29,724.83,1352.84,730.69,1350.14,735Z"/><path class="cls-4" d="M1221.28,982.86a17.25,17.25,0,0,0,13-15.3,13.59,13.59,0,0,0-9.57-15.15A19.68,19.68,0,0,0,1236,935.3c.42-10.66-11.06-15.88-11.06-15.88s56-13.57,61.76-14.9,14.68-6.84,11.89-18.84-13.39-12.43-18.87-11.15-75,17.41-98.94,23l-16,3.72c-6,1.41-8.73-1.23-4.49-5.7,5.65-5.95,9.26-12.55,10.52-23.49,1.32-11.5-2.58-25.71-4.82-31.22-4.15-10.24-11.17-18.34-19.27-21.11-12.64-4.34-21.63,3.56-17.15,17.35,6.72,20.61,2.32,37.52-9.26,47.72-21.76,19.17-34.2,34-34,57.71a90.78,90.78,0,0,0,2.56,19.81c9.21,39.75,48.66,65.33,88.4,56.12l35-7.57s12-3.9,15.26-12.72a13.31,13.31,0,0,0,.63-2.31C1230.14,985,1221.28,982.86,1221.28,982.86Z"/><path class="cls-5" d="M1270.5,853.74c-1.43-1.13-35.33-27.63-85.67-16.28a8.88,8.88,0,0,0-6.56,11.35,10.32,10.32,0,0,0,12,7.2c40.68-9.17,67.51,11.27,68.73,12.21,4.26,3.38,10.28,2.9,13.46-1.08A9.58,9.58,0,0,0,1270.5,853.74Z"/><ellipse class="cls-5" cx="1166.12" cy="744.33" rx="23.62" ry="29.53"/><path class="cls-5" d="M1280.49,729.85c-7.63,4.9-12.86,14.83-12.86,26.29,0,16.3,10.58,29.52,23.62,29.52s23.63-13.22,23.63-29.52c0-13-6.75-24.07-16.12-28A90.5,90.5,0,0,0,1280.49,729.85Z"/><path class="cls-5" d="M1346.67,721.94c-1.53-1-38.26-23.38-87-6.3a8.9,8.9,0,0,0-5.2,12.05,10.36,10.36,0,0,0,12.73,5.78,98.16,98.16,0,0,1,13.26-3.62,90.5,90.5,0,0,1,18.27-1.71c22.45.23,37.2,9,38.14,9.54,4.61,2.86,10.55,1.69,13.24-2.64S1351.29,724.83,1346.67,721.94Z"/><path class="cls-5" d="M1202.14,690.66c4.81,2.53,10.64,1,13-3.54s.47-10.26-4.35-12.83c-1.6-.85-39.76-20.73-87.19-.37a8.88,8.88,0,0,0-4.37,12.36,10.28,10.28,0,0,0,4.35,4.43,10.15,10.15,0,0,0,8.73.47C1170.66,674.74,1200.77,690,1202.14,690.66Z"/><path class="cls-3" d="M947.13,922A188.1,188.1,0,0,0,984.37,809.3c0-104.38-84.61-189-189-189-101.55,0-184.39,80.11-188.79,180.58L941,785.83Zm-206-148.1c-13,0-23.62-13.22-23.62-29.53s10.57-29.53,23.62-29.53,23.63,13.22,23.63,29.53S754.17,773.86,741.12,773.86Zm49.06-86.74c-2.4,4.51-8.23,6.07-13,3.54-1.37-.7-31.48-15.92-69.79.52a10.15,10.15,0,0,1-8.73-.47,10.28,10.28,0,0,1-4.35-4.43,8.88,8.88,0,0,1,4.37-12.36c47.43-20.36,85.59-.48,87.19.37C790.65,676.86,792.59,682.6,790.18,687.12Zm135,47.92c-2.69,4.33-8.63,5.5-13.24,2.64-.94-.56-15.69-9.31-38.14-9.54,9.37,3.93,16.12,15,16.12,28,0,16.3-10.58,29.52-23.63,29.52s-23.62-13.22-23.62-29.52c0-11.46,5.23-21.39,12.86-26.29a98.16,98.16,0,0,0-13.26,3.62,10.36,10.36,0,0,1-12.73-5.78,8.9,8.9,0,0,1,5.2-12.05c48.71-17.08,85.44,5.33,87,6.3C926.29,724.83,927.84,730.69,925.14,735Z"/><path class="cls-3" d="M803.22,995.83a13.31,13.31,0,0,1-.63,2.31,189,189,0,0,0,47.93-8l-47,2.12A16,16,0,0,1,803.22,995.83Z"/><path class="cls-4" d="M803.48,992.23,683.1,997.65a73.16,73.16,0,0,0,69.19,20.78l35.05-7.57s12-3.9,15.25-12.72a13.31,13.31,0,0,0,.63-2.31A16,16,0,0,0,803.48,992.23Z"/><ellipse class="cls-5" cx="741.12" cy="744.33" rx="23.62" ry="29.53"/><path class="cls-5" d="M855.49,729.85c-7.63,4.9-12.86,14.83-12.86,26.29,0,16.3,10.58,29.52,23.62,29.52s23.63-13.22,23.63-29.52c0-13-6.75-24.07-16.12-28A90.5,90.5,0,0,0,855.49,729.85Z"/><path class="cls-5" d="M921.67,721.94c-1.53-1-38.26-23.38-87-6.3a8.9,8.9,0,0,0-5.2,12.05,10.36,10.36,0,0,0,12.73,5.78,98.16,98.16,0,0,1,13.26-3.62,90.5,90.5,0,0,1,18.27-1.71c22.45.23,37.2,9,38.14,9.54,4.61,2.86,10.55,1.69,13.24-2.64S926.29,724.83,921.67,721.94Z"/><path class="cls-5" d="M785.83,674.29c-1.6-.85-39.76-20.73-87.19-.37a8.88,8.88,0,0,0-4.37,12.36,10.28,10.28,0,0,0,4.35,4.43,10.15,10.15,0,0,0,8.73.47c38.31-16.44,68.42-1.22,69.79-.52,4.81,2.53,10.64,1,13-3.54S790.65,676.86,785.83,674.29Z"/><path class="cls-3" d="M370.38,620.31c-104.37,0-189,84.61-189,189,0,3.6.12,7.18.31,10.73l377.56-17C556,701.55,472.66,620.31,370.38,620.31ZM316.12,773.86c-13.05,0-23.62-13.22-23.62-29.53s10.57-29.53,23.62-29.53,23.63,13.22,23.63,29.53S329.17,773.86,316.12,773.86Zm49.06-86.74c-2.4,4.51-8.23,6.07-13,3.54-1.37-.7-31.48-15.92-69.79.52a10.15,10.15,0,0,1-8.73-.47,10.28,10.28,0,0,1-4.35-4.43,8.88,8.88,0,0,1,4.37-12.36c47.43-20.36,85.59-.48,87.19.37C365.65,676.86,367.59,682.6,365.18,687.12Zm135,47.92c-2.69,4.33-8.63,5.5-13.24,2.64-.94-.56-15.69-9.31-38.14-9.54,9.37,3.93,16.12,15,16.12,28,0,16.3-10.58,29.52-23.63,29.52s-23.62-13.22-23.62-29.52c0-11.46,5.23-21.39,12.86-26.29a98.16,98.16,0,0,0-13.26,3.62,10.36,10.36,0,0,1-12.73-5.78,8.9,8.9,0,0,1,5.2-12.05c48.71-17.08,85.44,5.33,87,6.3C501.29,724.83,502.84,730.69,500.14,735Z"/><path class="cls-4" d="M327.29,1018.43l27.82-6-69.83,3.15A72,72,0,0,0,327.29,1018.43Z"/><ellipse class="cls-5" cx="316.12" cy="744.33" rx="23.62" ry="29.53"/><path class="cls-5" d="M430.49,729.85c-7.63,4.9-12.86,14.83-12.86,26.29,0,16.3,10.58,29.52,23.62,29.52s23.63-13.22,23.63-29.52c0-13-6.75-24.07-16.12-28A90.5,90.5,0,0,0,430.49,729.85Z"/><path class="cls-5" d="M496.67,721.94c-1.53-1-38.26-23.38-87-6.3a8.9,8.9,0,0,0-5.2,12.05,10.36,10.36,0,0,0,12.73,5.78,98.16,98.16,0,0,1,13.26-3.62,90.5,90.5,0,0,1,18.27-1.71c22.45.23,37.2,9,38.14,9.54,4.61,2.86,10.55,1.69,13.24-2.64S501.29,724.83,496.67,721.94Z"/><path class="cls-5" d="M360.83,674.29c-1.6-.85-39.76-20.73-87.19-.37a8.88,8.88,0,0,0-4.37,12.36,10.28,10.28,0,0,0,4.35,4.43,10.15,10.15,0,0,0,8.73.47c38.31-16.44,68.42-1.22,69.79-.52,4.81,2.53,10.64,1,13-3.54S365.65,676.86,360.83,674.29Z"/><path class="cls-3" d="M5.49,729.85c-1.8.36-3.63.77-5.49,1.26v3.61A25,25,0,0,1,5.49,729.85Z"/><path class="cls-3" d="M66.89,825.2l67-3c.28-4.26.44-8.55.44-12.88A189.05,189.05,0,0,0,0,628.34v83.08c40.91-8.28,70.3,9.66,71.67,10.52,4.62,2.89,6.17,8.75,3.47,13.1s-8.63,5.5-13.24,2.64c-.94-.56-15.69-9.31-38.14-9.54,9.37,3.93,16.12,15,16.12,28,0,16.3-10.58,29.52-23.63,29.52-6.3,0-12-3.08-16.25-8.11v98.09l4.76-1.11c5.48-1.28,16.1-.85,18.87,11.15s-6.15,17.5-11.89,18.84c-1.41.32-5.85,1.39-11.74,2.81v82.93a188.66,188.66,0,0,0,72.47-41.08Z"/><path class="cls-4" d="M23.63,885.68c-2.77-12-13.39-12.43-18.87-11.15L0,875.64v31.69c5.89-1.42,10.33-2.49,11.74-2.81C17.48,903.18,26.42,897.68,23.63,885.68Z"/><path class="cls-5" d="M16.25,785.66c13.05,0,23.63-13.22,23.63-29.52,0-13-6.75-24.07-16.12-28a90.5,90.5,0,0,0-18.27,1.71A25,25,0,0,0,0,734.72v42.83C4.24,782.58,10,785.66,16.25,785.66Z"/><path class="cls-5" d="M23.76,728.14c22.45.23,37.2,9,38.14,9.54,4.61,2.86,10.55,1.69,13.24-2.64s1.15-10.21-3.47-13.1c-1.37-.86-30.76-18.8-71.67-10.52v19.69c1.86-.49,3.69-.9,5.49-1.26A90.5,90.5,0,0,1,23.76,728.14Z"/><path class="cls-3" d="M1595.85,15.71c-1.26,10.94-4.87,17.53-10.52,23.49-4.24,4.47-1.51,7.11,4.49,5.69l16-3.71c24-5.58,93.45-21.71,98.94-23s16.1-.85,18.87,11.15-6.15,17.5-11.89,18.83S1650,63.08,1650,63.08,1661.46,68.3,1661,79a19.68,19.68,0,0,1-11.3,17.11,13.59,13.59,0,0,1,9.57,15.15,17.26,17.26,0,0,1-13,15.3s8.86,2.16,6.94,13a13.56,13.56,0,0,1-.63,2.31A189.09,189.09,0,0,0,1828.47,0H1697.81a9.32,9.32,0,0,1-.39,10.8c-3.18,4-9.2,4.46-13.46,1.08-.72-.55-10.27-7.82-26.27-11.88h-62.53A58.51,58.51,0,0,1,1595.85,15.71Z"/><path class="cls-3" d="M1545.35,28.45c7.72-6.8,12.24-16.58,12.41-28.45H1462.3a188.76,188.76,0,0,0,49,86.16C1511.15,62.4,1523.59,47.62,1545.35,28.45Z"/><path class="cls-4" d="M1545.35,28.45c-21.76,19.17-34.2,34-34,57.71a90.78,90.78,0,0,0,2.56,19.81c9.21,39.74,48.66,65.32,88.4,56.12l35-7.57s12-3.9,15.26-12.72a13.56,13.56,0,0,0,.63-2.31c1.92-10.81-6.94-13-6.94-13a17.26,17.26,0,0,0,13-15.3,13.59,13.59,0,0,0-9.57-15.15A19.68,19.68,0,0,0,1661,79c.42-10.66-11.06-15.88-11.06-15.88s56-13.57,61.76-14.91,14.68-6.83,11.89-18.83-13.39-12.43-18.87-11.15-75,17.41-98.94,23l-16,3.71c-6,1.42-8.73-1.22-4.49-5.69,5.65-6,9.26-12.55,10.52-23.49A58.51,58.51,0,0,0,1595.16,0h-37.4C1557.59,11.87,1553.07,21.65,1545.35,28.45Z"/><path class="cls-5" d="M1697.42,10.8a9.32,9.32,0,0,0,.39-10.8h-40.12c16,4.06,25.55,11.33,26.27,11.88C1688.22,15.26,1694.24,14.78,1697.42,10.8Z"/><path class="cls-3" d="M1120.35,28.45c7.72-6.8,12.24-16.58,12.41-28.45H1037.3a188.76,188.76,0,0,0,49,86.16C1086.15,62.4,1098.59,47.62,1120.35,28.45Z"/><path class="cls-3" d="M1170.85,15.71c-1.26,10.94-4.87,17.53-10.52,23.49-4.24,4.47-1.51,7.11,4.49,5.69l16-3.71c24-5.58,93.45-21.71,98.94-23s16.1-.85,18.87,11.15-6.15,17.5-11.89,18.83S1225,63.08,1225,63.08,1236.46,68.3,1236,79a19.68,19.68,0,0,1-11.3,17.11,13.59,13.59,0,0,1,9.57,15.15,17.26,17.26,0,0,1-13,15.3s8.86,2.16,6.94,13a13.56,13.56,0,0,1-.63,2.31A189.09,189.09,0,0,0,1403.47,0H1272.81a9.32,9.32,0,0,1-.39,10.8c-3.18,4-9.2,4.46-13.46,1.08-.72-.55-10.27-7.82-26.27-11.88h-62.53A58.51,58.51,0,0,1,1170.85,15.71Z"/><path class="cls-4" d="M1120.35,28.45c-21.76,19.17-34.2,34-34,57.71a90.78,90.78,0,0,0,2.56,19.81c9.21,39.74,48.66,65.32,88.4,56.12l35-7.57s12-3.9,15.26-12.72a13.56,13.56,0,0,0,.63-2.31c1.92-10.81-6.94-13-6.94-13a17.26,17.26,0,0,0,13-15.3,13.59,13.59,0,0,0-9.57-15.15A19.68,19.68,0,0,0,1236,79c.42-10.66-11.06-15.88-11.06-15.88s56-13.57,61.76-14.91,14.68-6.83,11.89-18.83-13.39-12.43-18.87-11.15-75,17.41-98.94,23l-16,3.71c-6,1.42-8.73-1.22-4.49-5.69,5.65-6,9.26-12.55,10.52-23.49A58.51,58.51,0,0,0,1170.16,0h-37.4C1132.59,11.87,1128.07,21.65,1120.35,28.45Z"/><path class="cls-5" d="M1272.42,10.8a9.32,9.32,0,0,0,.39-10.8h-40.12c16,4.06,25.55,11.33,26.27,11.88C1263.22,15.26,1269.24,14.78,1272.42,10.8Z"/><path class="cls-3" d="M745.85,15.71C744.59,26.65,741,33.24,735.33,39.2c-4.24,4.47-1.51,7.11,4.49,5.69l16-3.71c24-5.58,93.45-21.71,98.94-23s16.1-.85,18.87,11.15-6.15,17.5-11.89,18.83S800,63.08,800,63.08,811.46,68.3,811,79a19.68,19.68,0,0,1-11.3,17.11,13.59,13.59,0,0,1,9.57,15.15,17.26,17.26,0,0,1-13,15.3s8.86,2.16,6.94,13a13.56,13.56,0,0,1-.63,2.31A189.09,189.09,0,0,0,978.47,0H847.81a9.32,9.32,0,0,1-.39,10.8c-3.18,4-9.2,4.46-13.46,1.08-.72-.55-10.27-7.82-26.27-11.88H745.16A58.51,58.51,0,0,1,745.85,15.71Z"/><path class="cls-3" d="M695.35,28.45c7.72-6.8,12.24-16.58,12.41-28.45H612.3a188.76,188.76,0,0,0,49,86.16C661.15,62.4,673.59,47.62,695.35,28.45Z"/><path class="cls-4" d="M695.35,28.45c-21.76,19.17-34.2,34-34,57.71A90.78,90.78,0,0,0,663.89,106c9.21,39.74,48.66,65.32,88.4,56.12l35.05-7.57s12-3.9,15.25-12.72a13.56,13.56,0,0,0,.63-2.31c1.92-10.81-6.94-13-6.94-13a17.26,17.26,0,0,0,13-15.3,13.59,13.59,0,0,0-9.57-15.15A19.68,19.68,0,0,0,811,79C811.46,68.3,800,63.08,800,63.08s56-13.57,61.76-14.91,14.68-6.83,11.89-18.83-13.39-12.43-18.87-11.15-75,17.41-98.94,23l-16,3.71c-6,1.42-8.73-1.22-4.49-5.69,5.65-6,9.26-12.55,10.52-23.49A58.51,58.51,0,0,0,745.16,0h-37.4C707.59,11.87,703.07,21.65,695.35,28.45Z"/><path class="cls-5" d="M847.42,10.8A9.32,9.32,0,0,0,847.81,0H807.69c16,4.06,25.55,11.33,26.27,11.88C838.22,15.26,844.24,14.78,847.42,10.8Z"/><path class="cls-3" d="M270.35,28.45c7.72-6.8,12.24-16.58,12.41-28.45H187.3a188.76,188.76,0,0,0,49,86.16C236.15,62.4,248.59,47.62,270.35,28.45Z"/><path class="cls-3" d="M320.85,15.71C319.59,26.65,316,33.24,310.33,39.2c-4.24,4.47-1.51,7.11,4.49,5.69l16-3.71c24-5.58,93.45-21.71,98.94-23s16.1-.85,18.87,11.15-6.15,17.5-11.89,18.83S375,63.08,375,63.08,386.46,68.3,386,79a19.68,19.68,0,0,1-11.3,17.11,13.59,13.59,0,0,1,9.57,15.15,17.26,17.26,0,0,1-13,15.3s8.86,2.16,6.94,13a13.56,13.56,0,0,1-.63,2.31A189.09,189.09,0,0,0,553.47,0H422.81a9.32,9.32,0,0,1-.39,10.8c-3.18,4-9.2,4.46-13.46,1.08-.72-.55-10.27-7.82-26.27-11.88H320.16A58.51,58.51,0,0,1,320.85,15.71Z"/><path class="cls-4" d="M270.35,28.45c-21.76,19.17-34.2,34-34,57.71A90.78,90.78,0,0,0,238.89,106c9.21,39.74,48.66,65.32,88.4,56.12l35-7.57s12-3.9,15.25-12.72a13.56,13.56,0,0,0,.63-2.31c1.92-10.81-6.94-13-6.94-13a17.26,17.26,0,0,0,13-15.3,13.59,13.59,0,0,0-9.57-15.15A19.68,19.68,0,0,0,386,79C386.46,68.3,375,63.08,375,63.08s56-13.57,61.76-14.91,14.68-6.83,11.89-18.83-13.39-12.43-18.87-11.15-75,17.41-98.94,23l-16,3.71c-6,1.42-8.73-1.22-4.49-5.69,5.65-6,9.26-12.55,10.52-23.49A58.51,58.51,0,0,0,320.16,0h-37.4C282.59,11.87,278.07,21.65,270.35,28.45Z"/><path class="cls-5" d="M422.42,10.8A9.32,9.32,0,0,0,422.81,0H382.69c16,4.06,25.55,11.33,26.27,11.88C413.22,15.26,419.24,14.78,422.42,10.8Z"/><path class="cls-3" d="M128.47,0H0V19.3l4.76-1.11c5.48-1.28,16.1-.85,18.87,11.15s-6.15,17.5-11.89,18.83L0,51v82.94A189.34,189.34,0,0,0,128.47,0Z"/><path class="cls-4" d="M23.63,29.34c-2.77-12-13.39-12.43-18.87-11.15L0,19.3V51l11.74-2.81C17.48,46.84,26.42,41.34,23.63,29.34Z"/><path class="cls-3" d="M1115.87,1080h209a189,189,0,0,0-209,0Z"/><path class="cls-3" d="M690.87,1080h209a189,189,0,0,0-209,0Z"/><path class="cls-3" d="M265.87,1080h209a189,189,0,0,0-209,0Z"/><path class="cls-3" d="M0,1080H49.9A187.89,187.89,0,0,0,0,1056.51Z"/><path class="cls-3" d="M1920,0h-32.7A188,188,0,0,0,1920,67.41Z"/><path class="cls-3" d="M1638.18,1043.17v-.05h0Z"/><path class="cls-3" d="M1633,882.69a21,21,0,0,0,2.36,1.62h0a19.74,19.74,0,0,1-2.36-1.62l-37.47-30.06h0Z"/><path class="cls-3" d="M1809.44,832.8c0-.79-.06-1.57-.14-2.32C1809.38,831.23,1809.43,832,1809.44,832.8Z"/><path class="cls-3" d="M1768.22,849c0-.39,0-.78,0-1.18C1768.19,848.26,1768.2,848.65,1768.22,849Z"/><path class="cls-3" d="M1807.75,824.23c.26.63.49,1.28.7,1.95C1808.24,825.51,1808,824.86,1807.75,824.23Z"/><path class="cls-3" d="M1783.09,865.64h0c6.15,0,12.47-3.58,17.38-9.21C1795.56,862.06,1789.24,865.64,1783.09,865.64Z"/><path class="cls-3" d="M1805.25,820.05a13.5,13.5,0,0,0-10.73-5h0A13.5,13.5,0,0,1,1805.25,820.05Z"/><path class="cls-3" d="M1805.46,849a37.12,37.12,0,0,1-1.94,3.36A37.12,37.12,0,0,0,1805.46,849Z"/><path class="cls-3" d="M1730,904.4c3.19-14.7,14.78-26.61,25.86-26.62h0c-11.08,0-22.67,11.91-25.87,26.62s3.2,26.63,14.28,26.63h0C1733.23,931,1726.84,919.11,1730,904.4Z"/><path class="cls-3" d="M1808,842.92c-.26.85-.55,1.69-.87,2.51C1807.4,844.61,1807.69,843.77,1808,842.92Z"/><path class="cls-3" d="M1712.2,944.74h0c10.53,0,16.6,11.56,13.56,25.83s-14,25.83-24.57,25.83h0c10.54,0,21.54-11.56,24.58-25.83S1722.73,944.74,1712.2,944.74Z"/><polygon class="cls-3" points="1554.16 819.43 1482.09 761.61 1554.16 819.43 1554.16 819.43"/><path class="cls-3" d="M1803.52,852.4c-.71,1.08-1.46,2.1-2.25,3.08C1802.06,854.5,1802.81,853.48,1803.52,852.4Z"/><path class="cls-3" d="M1806.58,846.66c-.35.81-.72,1.6-1.12,2.38C1805.86,848.26,1806.23,847.47,1806.58,846.66Z"/><path class="cls-3" d="M1646.28,554.69l-120.85,5.44-157.08,7.08,6,132.43,9.23,205.05,7.9,175.31H1920V542.36L1728.3,551ZM1826.39,746h0l.08-.06v.67h0V901.32c0,25.63-13.36,31.18-13.36,31.18s-122.6,96.24-145.46,114.21a26.21,26.21,0,0,1-6.87,4.12,11.58,11.58,0,0,1-20.16-.13h0a26.45,26.45,0,0,1-6.61-4l-42-33c-36.06,3-69.71-21.42-78.12-57.73-.35-1.5-.65-3-.92-4.41l-24.25-19.06S1475,927,1475,901.32V746l.18.13a18.11,18.11,0,0,1,6.91-12.32l64.25-51.09a10.35,10.35,0,0,1-2.07-2.76,8.88,8.88,0,0,1,4.37-12.36,112.33,112.33,0,0,1,26.45-7.75l57.41-45.65c9.46-7.66,25-7.66,34.41,0l152.47,118.56A17.88,17.88,0,0,1,1826.39,746Z"/><path class="cls-6" d="M1529.7,893.42c1.33-9.71,7.62-16.46,16.73-16.46l.49,0c10.39-10.32,14.09-26.6,7.69-46.25-1.44-4.45-1.48-8.29-.45-11.3l-72.07-57.82a19.83,19.83,0,0,1-5.32-6.5,16.58,16.58,0,0,1-1.77-7.41V901.32c0,25.63,13.72,31.18,13.72,31.18L1513,951.56C1508,925.72,1514.46,909.88,1529.7,893.42Z"/><path class="cls-6" d="M1638.18,1043.17v-.05h0v-38.91c-.53.21-.85.31-.85.31l-35,7.57a72.16,72.16,0,0,1-10.28,1.61l42,33a26.45,26.45,0,0,0,6.61,4A13.82,13.82,0,0,1,1638.18,1043.17Z"/><path class="cls-6" d="M1475.18,746.11,1475,746v1.72c0-.53.14-1,.18-1.57Z"/><path class="cls-6" d="M1595.54,852.63a54.83,54.83,0,0,1,.31,13.09c-1.26,10.93-4.87,17.53-10.52,23.49-4.24,4.46-1.51,7.1,4.49,5.69l16-3.72,29.55-6.87a21,21,0,0,1-2.36-1.62Z"/><path class="cls-7" d="M1826.47,746l-.08.06c0,.21.08.41.08.61Z"/><path class="cls-7" d="M1819.38,760.55l-120.26,96.67a8.83,8.83,0,0,1-1.7,3.58,9,9,0,0,1-6.88,3.32l-12.91,10.38,27.13-6.31c5.48-1.27,16.1-.85,18.87,11.15s-6.15,17.5-11.89,18.84c-4,.91-31.51,7.58-48.45,11.68v133.26a13.87,13.87,0,0,1-2.51,7.71,26.21,26.21,0,0,0,6.87-4.12c22.86-18,145.46-114.21,145.46-114.21s13.36-5.55,13.36-31.18V746.65h0A17.88,17.88,0,0,1,1819.38,760.55Zm-93.61,210c-3,14.27-14,25.83-24.58,25.83h0c-10.52,0-16.59-11.56-13.55-25.83s14-25.83,24.56-25.83h0C1722.73,944.74,1728.8,956.3,1725.77,970.57Zm44.43-66.17C1767,919.12,1755.41,931,1744.31,931h0c-11.08,0-17.47-11.91-14.28-26.63s14.79-26.62,25.87-26.62h0C1767,877.78,1773.38,889.69,1770.2,904.4Zm38.43-64.08c-.2.88-.43,1.74-.68,2.6s-.55,1.69-.87,2.51c-.16.41-.33.82-.5,1.23-.35.81-.72,1.6-1.12,2.38a37.12,37.12,0,0,1-1.94,3.36c-.71,1.08-1.46,2.1-2.25,3.08-.26.32-.53.64-.8.95-4.91,5.63-11.23,9.21-17.38,9.21h0a14.51,14.51,0,0,1-2-.13c-.32,0-.64-.09-1-.16a13.3,13.3,0,0,1-5.8-2.76,14.62,14.62,0,0,1-1.35-1.27c-2.76-3-4.45-7.24-4.76-12.28,0-.39,0-.78,0-1.18a30.07,30.07,0,0,1,.33-4.94c.12-.86.28-1.72.48-2.6a36.74,36.74,0,0,1,2-6.32c.35-.81.72-1.6,1.12-2.37a36.78,36.78,0,0,1,3.41-5.45,34.79,34.79,0,0,1,3.26-3.75c.58-.57,1.17-1.11,1.78-1.63,4.24-3.61,9.12-5.78,13.91-5.78h0a13.5,13.5,0,0,1,10.73,5,16.86,16.86,0,0,1,2.5,4.18c.26.63.49,1.28.7,1.95a23.73,23.73,0,0,1,.85,4.3c.08.75.13,1.53.14,2.32A31.77,31.77,0,0,1,1808.63,840.32Z"/><path class="cls-1" d="M1632.5,614.18l-57.41,45.65c34.45-5.58,59.46,7.44,60.74,8.12,4.82,2.57,6.76,8.31,4.35,12.83s-8.23,6.07-13,3.54c-1.37-.7-31.48-15.92-69.79.52a10.15,10.15,0,0,1-8.73-.47,10.28,10.28,0,0,1-2.28-1.67l-64.25,51.09a18.11,18.11,0,0,0-6.91,12.32v0c0,.53-.18,1-.18,1.57a16.58,16.58,0,0,0,1.77,7.41,19.83,19.83,0,0,0,5.32,6.5l72.07,57.82c2.17-6.31,9-9,17.6-6,8.1,2.78,15.12,10.87,19.27,21.11a81.49,81.49,0,0,1,4.51,18.14L1633,882.69a19.74,19.74,0,0,0,2.36,1.62l42.26-9.81,12.91-10.38a10.23,10.23,0,0,1-6.58-2.24c-1.22-.93-28-21.38-68.73-12.21a10.32,10.32,0,0,1-12-7.2,8.88,8.88,0,0,1,6.56-11.35c50.34-11.35,84.24,15.15,85.67,16.29a9.88,9.88,0,0,1,3.62,9.81l120.26-96.67a17.88,17.88,0,0,0,7.09-13.9c0-.2-.06-.4-.08-.61h0a17.88,17.88,0,0,0-7-13.29L1666.91,614.18C1657.46,606.52,1642,606.52,1632.5,614.18Zm-41.38,153.34c-13,0-23.62-13.22-23.62-29.53s10.57-29.52,23.62-29.52,23.63,13.21,23.63,29.52S1604.17,767.52,1591.12,767.52Zm93.58-58.22c48.71-17.08,85.44,5.34,87,6.3,4.62,2.89,6.17,8.75,3.47,13.1s-8.63,5.5-13.24,2.64c-.94-.56-15.69-9.31-38.14-9.54,9.37,3.93,16.12,15,16.12,28,0,16.31-10.58,29.53-23.63,29.53s-23.62-13.22-23.62-29.53c0-11.46,5.23-21.39,12.86-26.28a96.62,96.62,0,0,0-13.26,3.61,10.36,10.36,0,0,1-12.73-5.78A8.9,8.9,0,0,1,1684.7,709.3Z"/><path class="cls-1" d="M1663.29,1043.12V909.86L1650,913.08S1661.46,918.3,1661,929a19.68,19.68,0,0,1-11.3,17.11,13.59,13.59,0,0,1,9.57,15.15,17.25,17.25,0,0,1-13,15.3s8.86,2.17,6.94,13c-1.55,8.91-12,13.55-15,14.72v39a13.82,13.82,0,0,0,2.43,7.53h0a11.58,11.58,0,0,0,20.16.13A13.87,13.87,0,0,0,1663.29,1043.12Z"/><path class="cls-8" d="M1808.45,826.18c-.21-.67-.44-1.32-.7-1.95a16.86,16.86,0,0,0-2.5-4.18,13.5,13.5,0,0,0-10.73-5h0c-4.79,0-9.67,2.17-13.91,5.78-.61.52-1.2,1.06-1.78,1.63a34.79,34.79,0,0,0-3.26,3.75,36.78,36.78,0,0,0-3.41,5.45c-.4.77-.77,1.56-1.12,2.37a36.74,36.74,0,0,0-2,6.32c-.2.88-.36,1.74-.48,2.6a30.07,30.07,0,0,0-.33,4.94c0,.4,0,.79,0,1.18.31,5,2,9.33,4.76,12.28a14.62,14.62,0,0,0,1.35,1.27,13.3,13.3,0,0,0,5.8,2.76c.32.07.64.12,1,.16a14.51,14.51,0,0,0,2,.13h0c6.15,0,12.47-3.58,17.38-9.21.27-.31.54-.63.8-.95.79-1,1.54-2,2.25-3.08a37.12,37.12,0,0,0,1.94-3.36c.4-.78.77-1.57,1.12-2.38.17-.41.34-.82.5-1.23.32-.82.61-1.66.87-2.51s.48-1.72.68-2.6a31.77,31.77,0,0,0,.81-7.52c0-.79-.06-1.57-.14-2.32A23.73,23.73,0,0,0,1808.45,826.18Z"/><path class="cls-8" d="M1725.76,970.57c3-14.27-3-25.83-13.56-25.83h0c-10.53,0-21.53,11.56-24.56,25.83s3,25.83,13.55,25.83h0C1711.72,996.4,1722.72,984.84,1725.76,970.57Z"/><path class="cls-8" d="M1755.9,877.78h0c-11.08,0-22.67,11.92-25.86,26.62s3.2,26.62,14.28,26.63h0c11.1,0,22.7-11.91,25.89-26.63S1767,877.78,1755.9,877.78Z"/><path class="cls-8" d="M1697.42,860.8a8.83,8.83,0,0,0,1.7-3.58,9.88,9.88,0,0,0-3.62-9.81c-1.43-1.14-35.33-27.64-85.67-16.29a8.88,8.88,0,0,0-6.56,11.35,10.32,10.32,0,0,0,12,7.2c40.68-9.17,67.51,11.28,68.73,12.21a10.23,10.23,0,0,0,6.58,2.24A9,9,0,0,0,1697.42,860.8Z"/><ellipse class="cls-8" cx="1591.12" cy="737.99" rx="23.62" ry="29.53"/><path class="cls-8" d="M1705.49,723.52c-7.63,4.89-12.86,14.82-12.86,26.28,0,16.31,10.58,29.53,23.62,29.53s23.63-13.22,23.63-29.53c0-13-6.75-24.07-16.12-28A89.83,89.83,0,0,0,1705.49,723.52Z"/><path class="cls-8" d="M1683.53,726.06a10.26,10.26,0,0,0,8.7,1.07,96.62,96.62,0,0,1,13.26-3.61,89.83,89.83,0,0,1,18.27-1.72c22.45.23,37.2,9,38.14,9.54,4.61,2.86,10.55,1.69,13.24-2.64s1.15-10.21-3.47-13.1c-1.53-1-38.26-23.38-87-6.3a8.9,8.9,0,0,0-5.2,12.05A10.29,10.29,0,0,0,1683.53,726.06Z"/><path class="cls-8" d="M1557.35,684.84c38.31-16.44,68.42-1.22,69.79-.52,4.81,2.53,10.64,1,13-3.54s.47-10.26-4.35-12.83c-1.28-.68-26.29-13.7-60.74-8.12a112.33,112.33,0,0,0-26.45,7.75,8.88,8.88,0,0,0-4.37,12.36,10.67,10.67,0,0,0,4.35,4.43A10.15,10.15,0,0,0,1557.35,684.84Z"/><path class="cls-8" d="M1529.7,893.42a214.53,214.53,0,0,1,15.65-15c.54-.48,1.06-1,1.57-1.48l-.49,0C1537.32,877,1531,883.71,1529.7,893.42Z"/><path class="cls-4" d="M1637.33,1004.52s.32-.1.85-.31c3.06-1.17,13.49-5.81,15-14.72,1.92-10.8-6.94-13-6.94-13a17.25,17.25,0,0,0,13-15.3,13.59,13.59,0,0,0-9.57-15.15A19.68,19.68,0,0,0,1661,929c.42-10.66-11.06-15.88-11.06-15.88l13.31-3.22c16.94-4.1,44.5-10.77,48.45-11.68,5.74-1.34,14.68-6.84,11.89-18.84s-13.39-12.42-18.87-11.15l-27.13,6.31-42.26,9.81h0l-29.55,6.87-16,3.72c-6,1.41-8.73-1.23-4.49-5.69,5.65-6,9.26-12.56,10.52-23.49a54.83,54.83,0,0,0-.31-13.09h0a81.49,81.49,0,0,0-4.51-18.14c-4.15-10.24-11.17-18.33-19.27-21.11-8.56-2.94-15.43-.26-17.6,6h0c-1,3-1,6.85.45,11.3,6.4,19.65,2.7,35.93-7.69,46.25-.51.5-1,1-1.57,1.48a214.53,214.53,0,0,0-15.65,15c-15.24,16.46-21.69,32.3-16.73,58.14.27,1.44.57,2.91.92,4.41,8.41,36.31,42.06,60.78,78.12,57.73a72.16,72.16,0,0,0,10.28-1.61Z"/><path class="cls-3" d="M179,894.4q0-5.4-2.7-7.9T168,884H155.4v20.4h11.8Q179,904.4,179,894.4Z"/><path class="cls-3" d="M517.19,930.2q0,7.8,2.21,10t7.19,2.2a12.89,12.89,0,0,0,4.5-.7,14.28,14.28,0,0,0,3.91-2.3V915.8a14.28,14.28,0,0,0-3.91-2.3,12.89,12.89,0,0,0-4.5-.7q-4.4,0-6.9,4.5T517.19,930.2Z"/><path class="cls-3" d="M847,912.8q-4.4,0-6.9,4.5t-2.5,12.9q0,7.8,2.2,10t7.2,2.2a13,13,0,0,0,4.5-.7,14.09,14.09,0,0,0,3.9-2.3V915.8a14.09,14.09,0,0,0-3.9-2.3A13,13,0,0,0,847,912.8Z"/><path class="cls-3" d="M271.9,938.9q-2.1,1.5-2.1,5.1,0,6.6,7,6.6a14.72,14.72,0,0,0,10.8-4.4v-8.8h-8.8Q274,937.4,271.9,938.9Z"/><path class="cls-3" d="M72.47,949.18,75.89,1025l209.39-9.43,69.83-3.15,328-14.77,120.38-5.42,47-2.12L950,985.63,947.13,922,941,785.83,606.59,800.89,559.26,803,181.7,820l-47.77,2.15-67,3ZM729.79,975V915h-13.2l4-34.8h57.6V975Zm-3.4-136h51.8v33.4h-51.8Zm177.4,1.2V975h-42l-2.2-6.2a44.13,44.13,0,0,1-12,6.1A46.77,46.77,0,0,1,833,977q-44.79,0-44.8-46.4,0-25.8,12.7-39.1t33.9-13.3a64.5,64.5,0,0,1,11,1,44.56,44.56,0,0,1,9.6,2.6V840.2Zm-306.4,0h48.4v59l17.4-19h54.4l-37.4,41,39.4,53.8h-51.2l-18.2-28.6-4.4,5V975h-48.4ZM480.5,891.5q12.69-13.31,33.9-13.3a64.59,64.59,0,0,1,11,1,44.89,44.89,0,0,1,9.6,2.6V840.2h48.4V975h-42l-2.21-6.2a44.13,44.13,0,0,1-12,6.1,46.72,46.72,0,0,1-14.6,2.1q-44.79,0-44.8-46.4Q467.79,904.8,480.5,891.5ZM451,887q7.8,8.81,7.8,27v61H410.4V920.2q0-6.41-6.6-6.4A11.53,11.53,0,0,0,399,915a11.65,11.65,0,0,0-4,2.8V975H346.6V880.2H392l1,5.4a63.17,63.17,0,0,1,14.6-5.2,78.69,78.69,0,0,1,18.8-2.2Q443.2,878.2,451,887ZM283.2,908q-4.41-1.61-12.6-1.6a115.37,115.37,0,0,0-16.7,1.3,111.84,111.84,0,0,0-16.7,3.7v-26a89.16,89.16,0,0,1,19.7-5.2,143.18,143.18,0,0,1,23.3-2q24.6,0,39,10.1t14.4,30.1V975H291.2l-2-6.8Q278.4,977,258.6,977q-14.81,0-24.1-7.8t-9.3-23.8q0-32.4,41.2-32.4h21.2v-1Q287.6,909.6,283.2,908ZM179.4,846.2q23.81,0,36.3,13.3t12.5,34.9a40.65,40.65,0,0,1-6.3,22.3,56.21,56.21,0,0,1-16.5,16.7,14.37,14.37,0,0,1,5.4,6.6L226,975H175.6L163,946.4a7.88,7.88,0,0,0-2.2-3.3,5.57,5.57,0,0,0-3.4-.9h-2V975H107V846.2Z"/><path class="cls-8" d="M107,975h48.4V942.2h2a5.57,5.57,0,0,1,3.4.9,7.88,7.88,0,0,1,2.2,3.3L175.6,975H226l-15.2-35a14.37,14.37,0,0,0-5.4-6.6,56.21,56.21,0,0,0,16.5-16.7,40.65,40.65,0,0,0,6.3-22.3q0-21.6-12.5-34.9t-36.3-13.3H107Zm48.4-91H168q5.59,0,8.3,2.5t2.7,7.9q0,10-11.8,10H155.4Z"/><path class="cls-8" d="M266.4,913q-41.2,0-41.2,32.4,0,16,9.3,23.8t24.1,7.8q19.8,0,30.6-8.8l2,6.8h42.4V918.4q0-20-14.4-30.1t-39-10.1a143.18,143.18,0,0,0-23.3,2,89.16,89.16,0,0,0-19.7,5.2v26a111.84,111.84,0,0,1,16.7-3.7,115.37,115.37,0,0,1,16.7-1.3q8.19,0,12.6,1.6t4.4,4v1Zm21.2,33.2a14.72,14.72,0,0,1-10.8,4.4q-7,0-7-6.6,0-3.6,2.1-5.1t6.9-1.5h8.8Z"/><path class="cls-8" d="M426.4,878.2a78.69,78.69,0,0,0-18.8,2.2,63.17,63.17,0,0,0-14.6,5.2l-1-5.4H346.6V975H395V917.8a11.65,11.65,0,0,1,4-2.8,11.53,11.53,0,0,1,4.8-1.2q6.6,0,6.6,6.4V975h48.4V914q0-18.19-7.8-27T426.4,878.2Z"/><path class="cls-8" d="M512.59,977a46.72,46.72,0,0,0,14.6-2.1,44.13,44.13,0,0,0,12-6.1l2.21,6.2h42V840.2H535v41.6a44.89,44.89,0,0,0-9.6-2.6,64.59,64.59,0,0,0-11-1q-21.21,0-33.9,13.3t-12.71,39.1Q467.79,977,512.59,977Zm14-64.2a12.89,12.89,0,0,1,4.5.7,14.28,14.28,0,0,1,3.91,2.3v23.6a14.28,14.28,0,0,1-3.91,2.3,12.89,12.89,0,0,1-4.5.7q-5,0-7.19-2.2t-2.21-10q0-8.4,2.5-12.9T526.59,912.8Z"/><polygon class="cls-8" points="645.79 951.4 650.19 946.4 668.39 975 719.59 975 680.19 921.2 717.59 880.2 663.19 880.2 645.79 899.2 645.79 840.2 597.39 840.2 597.39 975 645.79 975 645.79 951.4"/><polygon class="cls-8" points="778.19 880.2 720.6 880.2 716.6 915 729.79 915 729.79 975 778.19 975 778.19 880.2"/><rect class="cls-8" x="726.39" y="839" width="51.8" height="33.4"/><path class="cls-8" d="M855.39,881.8a44.56,44.56,0,0,0-9.6-2.6,64.5,64.5,0,0,0-11-1q-21.19,0-33.9,13.3t-12.7,39.1q0,46.39,44.8,46.4a46.77,46.77,0,0,0,14.6-2.1,44.13,44.13,0,0,0,12-6.1l2.2,6.2h42V840.2h-48.4Zm0,57.6a14.09,14.09,0,0,1-3.9,2.3,13,13,0,0,1-4.5.7q-5,0-7.2-2.2t-2.2-10q0-8.4,2.5-12.9t6.9-4.5a13,13,0,0,1,4.5.7,14.09,14.09,0,0,1,3.9,2.3Z"/></g></g></svg>